<!DOCTYPE svg PUBLIC "-//W3C//DTD SVG 20010904//EN" "http://www.w3.org/TR/2001/REC-SVG-20010904/DTD/svg10.dtd">
<svg version="1.0" xmlns="http://www.w3.org/2000/svg" width="999px" height="699px" viewBox="0 0 9990 6990" preserveAspectRatio="xMidYMid meet">
<g id="layer101" fill="#043b35" stroke="none">
 <path d="M4645 5730 l-360 -360 -510 -2 -510 -3 -3 -37 c-2 -21 -7 -38 -13 -38 -5 0 -9 -188 -9 -483 l0 -482 -350 -350 c-192 -192 -350 -356 -350 -362 0 -7 -9 -18 -20 -25 -11 -7 -20 -17 -20 -23 0 -5 167 -176 370 -380 l370 -370 0 -513 0 -512 213 2 212 3 0 165 0 165 -73 1 -74 1 2 434 1 433 -298 298 -298 298 280 280 c236 235 282 286 290 319 6 22 13 43 18 47 4 4 7 92 7 196 l0 188 110 0 110 0 0 -1300 0 -1300 170 0 170 0 0 1300 0 1300 68 0 c63 0 70 -2 82 -25 8 -15 28 -30 49 -36 24 -7 337 -9 940 -7 l903 3 27 33 27 32 152 0 152 0 0 -232 0 -233 292 -292 293 -293 -283 -283 c-251 -251 -282 -286 -282 -314 0 -17 -4 -35 -10 -38 -6 -4 -10 -150 -10 -406 l0 -399 -427 0 -427 0 -311 -310 -310 -310 -310 310 -309 310 -93 0 -93 0 0 -170 0 -170 32 0 c30 0 68 -35 393 -360 l361 -361 359 360 360 361 528 0 527 0 0 515 0 515 368 375 c202 207 368 380 370 385 5 13 -21 40 -400 419 l-339 339 -2 513 -2 514 -513 3 -514 2 -313 313 c-172 171 -335 333 -362 359 l-48 48 -360 -360z m1398 -700 l438 0 -3 -72 -3 -73 -1477 -3 -1478 -2 0 75 0 75 423 0 422 0 310 310 310 310 310 -310 310 -310 438 0z"/>
 <path d="M4458 4358 l-3 -173 -67 -5 c-78 -6 -108 -25 -108 -69 0 -16 9 -39 19 -52 17 -21 30 -24 100 -27 45 -2 81 -7 81 -11 0 -3 -14 -26 -31 -51 -119 -177 -161 -348 -109 -454 36 -74 106 -128 291 -221 207 -105 264 -139 346 -207 77 -64 133 -135 177 -228 l34 -69 17 47 c26 71 98 182 147 228 73 69 169 129 351 220 95 47 194 101 220 120 57 42 103 103 118 158 25 93 -15 240 -104 388 l-45 73 71 6 c40 3 79 9 89 13 25 11 41 58 29 89 -14 36 -40 47 -110 47 l-61 0 0 175 c0 168 -1 175 -20 175 -19 0 -20 -7 -20 -96 0 -92 -1 -97 -29 -125 -35 -35 -86 -39 -122 -10 -22 17 -24 29 -29 123 l-5 103 -42 3 -43 3 0 -101 c0 -96 -1 -102 -26 -125 -38 -35 -87 -34 -125 4 -28 28 -29 33 -29 125 l0 96 -60 0 -60 0 0 -110 c0 -122 -13 -168 -53 -194 -48 -32 -142 -14 -163 31 -5 10 -11 74 -14 143 l-5 125 -60 0 -60 0 -1 -82 c-2 -115 -1 -111 -29 -138 -32 -33 -84 -33 -122 -1 -26 22 -27 29 -31 125 l-4 101 -39 0 -39 0 0 -94 c0 -87 -2 -97 -26 -125 -35 -42 -93 -44 -129 -5 -23 25 -25 35 -25 125 0 92 -1 99 -20 99 -19 0 -20 -8 -22 -172z"/>
 <path d="M5170 2747 c0 -29 -5 -37 -28 -45 -141 -49 -155 -248 -22 -318 45 -24 110 -32 110 -14 0 6 -7 10 -16 10 -35 0 -94 44 -114 85 -24 50 -25 86 -3 132 25 54 84 87 151 87 51 -1 53 0 31 12 -13 7 -34 13 -46 14 -17 0 -22 7 -25 32 -2 22 -9 34 -20 36 -14 3 -18 -4 -18 -31z"/>
 <path d="M5205 2610 c-5 -25 -11 -30 -36 -30 -36 0 -37 -12 -4 -30 25 -13 26 -19 7 -69 -4 -10 6 -7 27 8 30 22 33 22 56 7 27 -18 32 -8 14 26 -9 17 -7 24 17 44 l29 23 -38 1 c-31 0 -39 5 -47 25 -12 32 -17 32 -25 -5z"/>
 <path d="M3742 1810 l3 -179 -35 -3 c-23 -2 -35 -8 -35 -18 0 -12 17 -16 85 -18 l85 -3 -3 -49 c-6 -78 -52 -70 -52 9 0 17 -4 31 -10 31 -5 0 -10 -17 -10 -39 0 -37 -23 -72 -37 -57 -4 4 -10 28 -14 54 -6 39 -7 33 -6 -30 2 -75 2 -78 -20 -78 -14 0 -23 -6 -23 -15 0 -13 33 -15 240 -15 207 0 240 2 240 15 0 9 -9 15 -25 15 -14 0 -25 5 -25 10 0 6 3 10 8 10 8 0 6 119 -3 128 -3 3 -5 -15 -5 -40 0 -30 -5 -48 -14 -51 -21 -8 -36 14 -36 55 0 21 -4 38 -10 38 -5 0 -10 -17 -10 -39 0 -43 -21 -70 -38 -49 -5 7 -11 32 -14 55 l-3 42 85 3 c68 2 85 6 85 18 0 10 -12 16 -35 18 l-35 3 3 179 3 180 -66 0 -65 0 0 -71 c0 -79 -11 -109 -41 -109 -26 0 -39 37 -39 116 l0 64 -65 0 -66 0 3 -180z m198 -282 c-5 -59 -7 -63 -30 -63 -23 0 -25 4 -30 63 l-5 62 35 0 35 0 -5 -62z"/>
 <path d="M3698 1343 c-30 -68 -35 -138 -13 -179 9 -18 41 -49 71 -69 68 -47 118 -102 135 -149 7 -20 16 -36 19 -36 3 0 12 16 19 36 17 47 67 102 135 149 70 48 90 85 84 156 -2 30 -13 73 -24 94 l-19 40 -193 3 -193 2 -21 -47z"/>
 </g>
<g id="layer102" fill="#fefefe" stroke="none">
 <path d="M0 3495 l0 -3495 4995 0 4995 0 0 3495 0 3495 -4995 0 -4995 0 0 -3495z m5415 2188 l313 -313 514 -2 513 -3 2 -514 2 -513 339 -339 c379 -379 405 -406 400 -419 -2 -5 -168 -178 -370 -385 l-368 -375 0 -515 0 -515 -527 0 -528 0 -360 -361 -359 -360 -361 361 c-325 325 -363 360 -393 360 l-32 0 0 170 0 170 93 0 93 0 309 -310 310 -310 310 310 311 310 427 0 427 0 0 399 c0 256 4 402 10 406 6 3 10 21 10 38 0 28 31 63 282 314 l283 283 -293 293 -292 292 0 233 0 232 -152 0 -152 0 -27 -32 -27 -33 -903 -3 c-603 -2 -916 0 -940 7 -21 6 -41 21 -49 36 -12 23 -19 25 -82 25 l-68 0 0 -1300 0 -1300 -170 0 -170 0 0 1300 0 1300 -110 0 -110 0 0 -188 c0 -104 -3 -192 -7 -196 -5 -4 -12 -25 -18 -47 -8 -33 -54 -84 -290 -319 l-280 -280 298 -298 298 -298 -1 -433 -2 -434 74 -1 73 -1 0 -165 0 -165 -212 -3 -213 -2 0 512 0 513 -370 370 c-203 204 -370 375 -370 380 0 6 9 16 20 23 11 7 20 18 20 25 0 6 158 170 350 362 l350 350 0 482 c0 295 4 483 9 483 6 0 11 17 13 38 l3 37 510 3 510 2 360 360 360 360 48 -48 c27 -26 190 -188 362 -359z m-915 -1252 c0 -90 2 -100 25 -125 36 -39 94 -37 129 5 24 28 26 38 26 125 l0 94 39 0 39 0 4 -101 c4 -96 5 -103 31 -125 38 -32 90 -32 122 1 28 27 27 23 29 138 l1 82 60 0 60 0 5 -125 c3 -69 9 -133 14 -143 21 -45 115 -63 163 -31 40 26 53 72 53 194 l0 110 60 0 60 0 0 -96 c0 -92 1 -97 29 -125 38 -38 87 -39 125 -4 25 23 26 29 26 125 l0 101 43 -3 42 -3 5 -103 c5 -94 7 -106 29 -123 36 -29 87 -25 122 10 28 28 29 33 29 125 0 89 1 96 20 96 19 0 20 -7 20 -175 l0 -175 61 0 c70 0 96 -11 110 -47 12 -31 -4 -78 -29 -89 -10 -4 -49 -10 -89 -13 l-71 -6 45 -73 c89 -148 129 -295 104 -388 -15 -55 -61 -116 -118 -158 -26 -19 -125 -73 -220 -120 -182 -91 -278 -151 -351 -220 -49 -46 -121 -157 -147 -228 l-17 -47 -34 69 c-44 93 -100 164 -177 228 -82 68 -139 102 -346 207 -185 93 -255 147 -291 221 -52 106 -10 277 109 454 17 25 31 48 31 51 0 4 -36 9 -81 11 -70 3 -83 6 -100 27 -10 13 -19 36 -19 52 0 44 30 63 108 69 l67 5 3 173 c2 164 3 172 22 172 19 0 20 -7 20 -99z m708 -1689 c3 -25 8 -32 25 -32 12 -1 33 -7 46 -14 22 -12 20 -13 -31 -12 -67 0 -126 -33 -151 -87 -22 -46 -21 -82 3 -132 20 -41 79 -85 114 -85 9 0 16 -4 16 -10 0 -18 -65 -10 -110 14 -133 70 -119 269 22 318 23 8 28 16 28 45 0 27 4 34 18 31 11 -2 18 -14 20 -36z m22 -127 c8 -20 16 -25 47 -25 l38 -1 -29 -23 c-24 -20 -26 -27 -17 -44 18 -34 13 -44 -14 -26 -23 15 -26 15 -56 -7 -21 -15 -31 -18 -27 -8 19 50 18 56 -7 69 -33 18 -32 30 4 30 25 0 31 5 36 30 8 37 13 37 25 5z m-1360 -689 c0 -79 13 -116 39 -116 30 0 41 30 41 109 l0 71 65 0 66 0 -3 -180 -3 -179 35 -3 c23 -2 35 -8 35 -18 0 -12 -17 -16 -85 -18 l-85 -3 3 -42 c3 -23 9 -48 14 -55 17 -21 38 6 38 49 0 22 5 39 10 39 6 0 10 -17 10 -38 0 -41 15 -63 36 -55 9 3 14 21 14 51 0 25 2 43 5 40 9 -9 11 -128 3 -128 -5 0 -8 -4 -8 -10 0 -5 11 -10 25 -10 16 0 25 -6 25 -15 0 -13 -33 -15 -240 -15 -207 0 -240 2 -240 15 0 9 9 15 23 15 22 0 22 3 20 78 -1 63 0 69 6 30 4 -26 10 -50 14 -54 14 -15 37 20 37 57 0 22 5 39 10 39 6 0 10 -14 10 -31 0 -79 46 -87 52 -9 l3 49 -85 3 c-68 2 -85 6 -85 18 0 10 12 16 35 18 l35 3 -3 179 -3 180 66 0 65 0 0 -64z m254 -581 c11 -21 22 -64 24 -94 6 -71 -14 -108 -84 -156 -68 -47 -118 -102 -135 -149 -7 -20 -16 -36 -19 -36 -3 0 -12 16 -19 36 -17 47 -67 102 -135 149 -30 20 -62 51 -71 69 -22 41 -17 111 13 179 l21 47 193 -2 193 -3 19 -40z"/>
 <path d="M4675 5340 l-310 -310 -422 0 -423 0 0 -75 0 -75 1478 2 1477 3 3 73 3 72 -438 0 -438 0 -310 310 -310 310 -310 -310z"/>
 <path d="M3880 1528 c5 -59 7 -63 30 -63 23 0 25 4 30 63 l5 62 -35 0 -35 0 5 -62z"/>
 </g>

</svg>